# xmcd
#
# Track frame offsets:
#	150
#	15610
#	31377
#	47607
#	60872
#	76377
#	91497
#	106050
#	123267
#	138172
#
# Disc length: 2041 seconds
#
# Revision: 0
# Processed by: cddbd v1.4PL0 Copyright (c) Steve Scherf et al.
# Submitted via: EasyCDDAExtractor 4.6.9.1
#
DISCID=6e07f70a
DTITLE=Lee Greenwood - When Your In Love
DYEAR=1991
DGENRE=Country
TTITLE0=So Close
TTITLE1=When You're In Love
TTITLE2=If You'll Let THis Fool Back In
TTITLE3=Between A Rock And A Heartache
TTITLE4=She Holds The Key
TTITLE5=Rain
TTITLE6=Common Kindness
TTITLE7=You And Me And The Moon
TTITLE8=Somebody's Gotta Take The Fall
TTITLE9=Monday All Week Long
EXTD=
EXTT0=
EXTT1=
EXTT2=
EXTT3=
EXTT4=
EXTT5=
EXTT6=
EXTT7=
EXTT8=
EXTT9=
PLAYORDER=
